<?xml version="1.0" encoding="utf-8"?>
<!-- Generator: Adobe Illustrator 25.2.1, SVG Export Plug-In . SVG Version: 6.00 Build 0)  -->
<svg version="1.1" id="Layer_1" xmlns="http://www.w3.org/2000/svg" xmlns:xlink="http://www.w3.org/1999/xlink" x="0px" y="0px"
	 viewBox="0 0 1068.5 998.5" style="enable-background:new 0 0 1068.5 998.5;" xml:space="preserve">
<style type="text/css">
	.st0{fill:none;stroke:#000000;stroke-miterlimit:10;}
</style>
<path d="M781.1,741.7c-10,9.3-20.8,19.3-34.6,22.4c-7.8,1.7-16,1.6-23.8,1.1c-8-0.7-15.9-1.8-23.7-3.3c-8.9-1.6-17.7-3.5-26.7-4.8
	c-1.9-0.3-2.7,2.6-0.8,2.9c16.3,2.4,32.4,6.5,48.8,8c8.1,0.9,16.2,0.7,24.3-0.5c7.1-1.3,13.9-4,19.9-8.1c6.8-4.5,12.8-10,18.8-15.6
	C784.6,742.5,782.5,740.4,781.1,741.7L781.1,741.7z"/>
<path d="M793.9,705.2c-3,2.1-6.1,4.3-9.7,5.3c-3.7,0.9-7.4,0.9-11.1,0.2c-3.8-0.7-7.6-1.7-11.3-2.7l-12.1-3.1
	c-0.8-0.2-1.6,0.3-1.8,1.1c-0.2,0.8,0.3,1.5,1,1.7l12.6,3.2c4,1.1,8.1,2.1,12.2,2.8c3.8,0.7,7.8,0.5,11.6-0.4
	c3.8-1.1,7-3.3,10.2-5.6C797,706.7,795.5,704.1,793.9,705.2L793.9,705.2z"/>
<path d="M749.2,704.7c-2.6,0.2-4.7,1.4-7,2.5c-2.3,1.1-4.7,1.9-7.3,2.3c-5.4,0.9-10.6-0.7-16-0.4s-9.9,3.2-14.6,5.4
	c-4.9,2.3-9.9,4.3-15.1,6c-5.8,2-11.8,3.7-17.8,5c-1.9,0.4-1.1,3.3,0.8,2.9c10.4-2.3,20.6-5.6,30.4-9.9c2.5-1.1,4.9-2.2,7.3-3.4
	c2.2-1.3,4.6-2.2,7.1-2.8c5.3-0.9,10.7,0.8,16,0.4c2.8-0.2,5.6-0.9,8.2-1.9c2.6-1,5.1-2.9,7.9-3.2
	C751.2,707.6,751.2,704.6,749.2,704.7L749.2,704.7z"/>
<path d="M671.6,725.3c-12.8,4.4-26.3,6.4-39.8,6.1c-1.8,0-1.9,2.4-0.4,3c13.3,4.8,27,9.3,41.3,6.9c7.1-1.2,13.9-3.3,21-4.2
	c6.9-0.8,13.9-1,20.8-0.5c7.9,0.6,15.7,2.1,23.2,4.5c1.8,0.6,2.6-2.3,0.8-2.9c-13.3-4.2-27.3-5.7-41.2-4.5c-7,0.8-13.9,2-20.8,3.7
	c-7,1.7-14.2,2-21.3,0.8c-8-1.3-15.6-4-23.2-6.8l-0.4,3c13.8,0.3,27.5-1.8,40.6-6.2c1.8-0.6,1-3.5-0.8-2.9L671.6,725.3z"/>
<path d="M781.8,712.4c-3.1,3-6.4,5.7-9.9,8.2c-3.8,2.4-7.9,4.4-12.1,5.8l-27.4,9.9c-1.8,0.7-1,3.5,0.8,2.9l28.3-10.2
	c4.3-1.4,8.3-3.4,12.1-5.9c3.6-2.6,7.1-5.5,10.3-8.6C785.3,713.2,783.2,711.1,781.8,712.4L781.8,712.4z"/>
<path d="M773.1,712.3c-2,1.1-4.2,1.7-6.5,1.5c-1.1-0.1-1.7-0.3-2.5,0.6c-0.6,0.7-1.3,1.4-2.1,2c-3,2.3-6.9,3.2-10.6,2.3
	c-0.8-0.2-1.6,0.3-1.8,1.1c0,0.1,0,0.2-0.1,0.4c0.2,2-2.3,2.6-3.8,3.1c-2,0.6-4,1.3-6.1,1.7c-3.8,0.8-7.9,0.9-11.4-1.1
	c-0.7-0.4-1.6-0.2-2.1,0.5c-0.8,2-2.9,2.5-4.8,2.8c-2.9,0.3-5.8,0.5-8.8,0.5c-1.6,0-3.1,0-4.7,0c-1.4,0.1-2.8,0-4.2-0.2
	c-1-0.5-1.9-1.1-2.6-1.9c-0.8-0.8-1.9-1.2-3.1-1.3c-0.8,0-1.5,0.7-1.5,1.5c-0.3,2.1-3.2,2.6-4.8,2.8c-1.9,0.2-3.8,0.4-5.7,0.5
	c-3.7,0.1-7.7-0.2-10.7-2.6c-1.5-1.2-3.6,0.9-2.1,2.1c4,3.2,9,3.7,14,3.4c4.6-0.3,11.6-0.4,12.4-6.2l-1.5,1.5c1.1,0,2,1.3,2.7,2
	c1,0.8,2.2,1.3,3.5,1.4c3.4,0.2,6.9,0.2,10.3,0c4.5-0.2,12.1,0.4,14.2-4.7l-2.1,0.5c4.5,2.5,9.8,2.3,14.7,1.2c2.5-0.6,5-1.3,7.4-2.3
	c2.1-0.9,4-2.7,3.8-5.2l-1.9,1.5c5.9,1.3,12-0.8,15.8-5.5l-1.5,0.4c3.3,0.5,6.7-0.1,9.6-1.8c0.7-0.4,1-1.3,0.5-2.1
	C774.7,712.1,773.8,711.8,773.1,712.3L773.1,712.3z"/>
<path d="M734,612.1c-9-2.5-17.9-5.2-26.9-7.6c-4-1-8.2-1.8-12.2-0.8c-3.4,0.8-7.4,3.3-7.6,7.2c-0.2,4.8,4.7,7.1,8.5,8.5
	c1.8,0.6,2.6-2.3,0.8-2.9c-2-0.7-4.3-1.4-5.6-3.2s-0.7-3.6,1-4.9c3.5-2.7,8.4-2.3,12.5-1.4c4.7,1.1,9.4,2.6,14.1,3.9l14.7,4.1
	c0.8,0.2,1.6-0.4,1.8-1.2C735.2,613.1,734.8,612.4,734,612.1L734,612.1z"/>
<path d="M693.7,617.2c2.6-0.6,5.2-1.4,7.7-2.3c2.4-1.1,4.8-2.1,7.3-2.9c5.2-1.3,10.7-0.3,15.8,0.7c1.9,0.4,2.7-2.5,0.8-2.9
	c-5.4-1-11-2.1-16.6-0.9c-2.6,0.7-5.1,1.6-7.6,2.8c-2.7,1.1-5.5,2-8.4,2.6c-0.8,0.3-1.2,1.1-1,1.9C692.2,617,693,617.4,693.7,617.2
	L693.7,617.2z"/>
<path d="M761,620.1c4.5-2.7,7.8-6.8,10.9-11c1.6-2.2,3.2-4.3,5-6.3c0.5-0.5,0.9-1,1.4-1.4c0.2-0.2,0.5-0.4,0.7-0.6
	c0.1-0.1,0.4-0.2,0.5-0.2s0.1-0.1-0.1-0.2l-0.1,0.3c-0.1,0.3-0.3,0.7-0.4,1l-0.8,2.2c-0.7,1.8,2.2,2.6,2.9,0.8
	c0.5-1.5,1.6-3.4,1.2-5c-0.4-1.4-1.9-2.3-3.3-2c-1.5,0.2-2.6,1.5-3.6,2.5c-1.1,1.2-2.2,2.4-3.2,3.7c-3.8,4.9-7.2,10.5-12.7,13.7
	c-0.7,0.4-1,1.3-0.5,2.1C759.3,620.2,760.2,620.5,761,620.1L761,620.1z"/>
<path d="M787,611.6c4.2-8.4,4.2-18,1.8-27c-2.5-9.3-7.7-17.5-13.4-25.1s-11.9-14.7-17.3-22.5c-5.3-7.8-9.9-16-14-24.5
	c-4.6-9.5-8.5-19.3-11.6-29.4c-0.6-1.8-3.4-1.1-2.9,0.8c5.4,17.7,13.1,34.6,23,50.2c4.9,7.8,10.7,14.9,16.4,22.1s11.6,15.1,15,23.9
	c3.7,9.5,4.8,20.5,0.2,29.9C783.5,611.7,786.1,613.3,787,611.6L787,611.6z"/>
<path d="M683.5,634.9c-7.7-1.2-15.8-2.5-22.3-7.2c-2.8-2-5.1-4.7-6.5-7.8c-1.5-3.7-1.9-7.8-1.3-11.7c0.2-1.9-2.8-1.9-3,0
	c-0.6,4.3-0.1,8.8,1.6,12.8c1.5,3.4,3.9,6.3,6.8,8.6c6.9,5.3,15.6,6.9,24,8.2C684.6,638.1,685.4,635.2,683.5,634.9L683.5,634.9z"/>
<path d="M608.1,462.7c-5.2,4.3-12.7,3.8-19,3.1c-7-0.9-14.1-1.2-21.2-1c-14.4,0.8-28.4,4.7-41.1,11.4c-7.2,3.8-13.9,8.4-19.9,13.8
	c-0.6,0.6-0.6,1.6,0,2.1c0.2,0.2,0.4,0.3,0.6,0.4c11.5,2.4,23.1,4.7,34.8,5.9c11.6,1.3,23.4,0.8,34.8-1.4c6.3-1.3,12.9-2.8,19.4-1.3
	c1.9,0.4,2.7-2.5,0.8-2.9c-5.6-1.3-11.3-0.6-17,0.5c-5.7,1.2-11.5,2.1-17.4,2.6c-11.8,0.7-23.6-0.5-35.2-2.5
	c-6.6-1.1-13.1-2.4-19.6-3.8l0.7,2.5c10.8-9.6,23.5-16.6,37.4-20.6c6.9-2,14-3.3,21.1-3.7c7.1-0.3,14.2,0.1,21.2,1
	c7.4,0.8,15.5,1.1,21.5-4C611.7,463.6,609.6,461.5,608.1,462.7L608.1,462.7z"/>
<path d="M588.4,494.4c7.4-6.4,10.3-16.5,7.3-25.8c-0.6-1.8-3.5-1-2.9,0.8c2.7,8.3,0.1,17.3-6.6,22.9
	C584.8,493.5,586.9,495.6,588.4,494.4L588.4,494.4z"/>
<path d="M576.4,493.8c-5.9,3-12.6,4-19.1,2.9c-1.7-0.3-3.4-0.8-5.1-1.4c-8.7-3.8-12.8-13.9-9-22.6c0.2-0.5,0.5-1.1,0.8-1.6
	c13-4.1,26.6-5.5,40.2-4.1c3.7,10.5-0.3,22.2-9.8,28.1"/>
<path d="M575.7,492.5c-4,2-8.3,3-12.7,3.1c-4.2,0.1-8.7-0.6-12.3-2.9c-6.9-4.5-9.3-13.6-5.3-20.9l-0.9,0.7
	c12.8-4.1,26.4-5.5,39.8-4.1l-1.4-1.1c3.4,9.9-0.3,20.8-9.1,26.4c-1.6,1-0.1,3.6,1.5,2.6c9.9-6.3,14.3-18.7,10.5-29.8
	c-0.2-0.6-0.8-1.1-1.4-1.1c-13.2-1.4-26.5-0.1-39.2,3.8c-0.7,0.1-1.4,0.4-2,0.8c-0.4,0.5-0.8,1.1-1,1.8c-0.7,1.6-1.2,3.3-1.4,5.1
	c-0.5,3.1-0.1,6.3,1,9.2c2.3,5.8,7.2,10.1,13.2,11.6c7.5,1.8,15.5,0.9,22.4-2.6C578.9,494.3,577.3,491.7,575.7,492.5L575.7,492.5z"
	/>
<path d="M595.8,484.6c1.2-0.3,2.5-0.6,3.6-1.1c1.2-0.4,2.4-1.1,3.3-2c2-2.5-0.7-5.3-2.9-6.3c-1.2-0.5-2.4-0.9-3.6-1.1
	c-0.8-0.2-1.6,0.2-1.8,1c-0.2,0.8,0.2,1.6,1,1.9c0.6,0.1,1.1,0.2,1.7,0.4l0.8,0.2c0.2,0.1,0.3,0.1,0.4,0.2l0.2,0.1
	c0.2,0.1,0.5,0.2,0.7,0.4l0.4,0.2c0.3,0.2-0.2-0.2,0,0c0.2,0.2,0.4,0.4,0.6,0.6c0.2,0.3-0.2-0.2,0,0.1c0.1,0.1,0.2,0.3,0.3,0.5
	c-0.1-0.2-0.1-0.2,0,0c0-0.2,0-0.2,0,0v-0.2c0,0.2,0,0.1,0-0.1c0,0.1-0.1,0.1-0.1,0.2c0.1-0.2,0.2-0.2,0-0.1l-0.2,0.2l0,0
	c-0.2,0.2-0.4,0.3-0.7,0.4c-0.3,0.2-0.6,0.3-0.9,0.4l-0.3,0.1l-0.5,0.2l-0.9,0.3c-0.7,0.2-1.3,0.4-2,0.5c-0.8,0.2-1.2,1.1-1,1.8
	c0.3,0.8,1.1,1.2,1.8,1L595.8,484.6z"/>
<path d="M609.8,474.9c0.6,0.6,1.1,1.3,1.5,2c0.2,0.4,0.5,0.8,0.7,1.2c0.1,0.1,0.1,0.3,0.2,0.4c0,0.1,0.1,0.2,0.1,0.3v0.2
	c0-0.1,0-0.1,0,0c0,0.3-0.1,0.6-0.2,0.9c-0.2,0.4-0.4,0.7-0.6,1.1c-0.2,0.2,0.1-0.1-0.1,0.1l-0.2,0.2l-0.4,0.5l-0.2,0.2
	c0,0-0.2,0.2-0.2,0.1s-0.1,0.1-0.2,0.1l-0.3,0.2c-0.7,0.4-1,1.3-0.5,2.1c0.4,0.7,1.3,1,2.1,0.5c2-1.2,3.8-3.4,3.9-5.8
	c0-1.3-0.5-2.5-1.2-3.5c-0.6-1-1.3-2-2.1-2.9c-0.6-0.6-1.5-0.6-2.1-0.1c-0.6,0.6-0.6,1.5-0.1,2.1
	C609.8,474.8,609.8,474.8,609.8,474.9L609.8,474.9z"/>
<path d="M776.3,443.7c-5.9,1.3-11.4,4.1-16.6,7.2c-5.3,3.1-10.4,6.5-15.2,10.2c-1.5,1.1,0,3.7,1.5,2.6c4.8-3.6,9.7-6.9,14.9-10
	c5.1-3,10.5-5.7,16.3-7.1C779,446.2,778.2,443.3,776.3,443.7L776.3,443.7z"/>
<path d="M750.2,462.7c-17.9-4.2-36.6-1.8-54.1,3c-5,1.4-9.9,3-14.8,4.7c-1.8,0.6-1,3.5,0.8,2.9c16.8-6,34.6-10.4,52.5-9.7
	c5,0.2,9.9,0.9,14.8,2C751.3,466.1,752.1,463.2,750.2,462.7L750.2,462.7z"/>
<path d="M682.8,470.7c-4.7-4.1-9.7-7.7-15.1-10.8c-6.3-3.7-12.9-6.8-19.7-9.3c-6.8-2.4-13.9-4.1-21.2-4.9
	c-8.2-0.9-16.5-0.8-24.7-0.6c-16.9,0.5-33.8,2-50.5,4.6c-16.9,2.5-33.6,5.8-50.2,9.6c-16.6,3.8-33.1,7.9-49.6,12.1l-6.1,1.5
	c-1.9,0.5-1.1,3.4,0.8,2.9c16.2-4.1,32.5-8.3,48.8-12.1s32.8-7.2,49.4-10c16.5-2.8,33.2-4.6,49.9-5.4c15.5-0.7,31.4-1.1,46.4,3.2
	c6.9,2,13.5,4.7,19.9,8.1c5.8,2.9,11.2,6.3,16.3,10.3c1.2,1,2.3,2,3.4,3C682.1,474.2,684.2,472.1,682.8,470.7L682.8,470.7z"/>
<path d="M447.8,495c6.3-2.1,13.7,0.8,18,5.5c5.5,5.8,6.9,14.7,8.5,22.1c3.8,17.8,8.5,35.4,13.9,52.8c2.5,8,5,16.3,9,23.7
	c3.8,7,9.5,12.5,16,17c14,9.8,30.2,16.2,47.2,17.8c17.1,1.6,34.2-1.2,50.6-6c15.6-4.5,32-10.4,44.2-21.5c6.1-5.5,11-12.2,15.4-19
	c4.5-6.9,8.5-14.1,12.1-21.5c7.1-14.9,12.1-31.2,11.7-47.9c-0.1-4-0.5-8-1.2-11.9c-0.7-3.9-2.2-8.1-1.3-12.1s4.2-6.1,7.6-7.6
	c3.8-1.7,7.8-2.9,12-3.6c6.8-1.1,13.8-0.5,20.3,1.9c3.8,1.3,6.5,3.7,6.8,7.9c0.1,3.3-0.4,6.6-1.5,9.7c-0.6,1.8,2.3,2.7,2.9,0.8
	c1.5-5.2,3-11.9-0.5-16.7c-2.5-3.5-6.8-4.7-10.8-5.7c-8-2-16.5-1.7-24.4,0.8c-6.9,2.1-14.9,5.4-15.6,13.6c-0.4,4.2,1,8.3,1.7,12.4
	c0.7,4.2,1.1,8.4,1.1,12.7c-0.1,8.3-1.4,16.5-3.7,24.5c-4.7,16.3-12.9,31.7-22.5,45.6c-4.7,6.8-10.2,13.2-16.9,18.1
	c-6.9,5-14.7,8.7-22.6,11.7c-16.2,6.1-33.2,10.6-50.5,11.3c-8.8,0.4-17.5-0.3-26.1-2.1c-8.5-2-16.7-5.2-24.4-9.5
	c-7.3-4-14.5-8.6-19.9-14.9s-8.4-14.3-11-22.1c-5.8-17.6-10.8-35.5-14.9-53.6c-1.8-8.1-3-16.7-6.6-24.2c-3-6.5-8.8-11.3-15.8-12.9
	c-3.1-0.8-6.3-0.7-9.3,0.3C445.3,492.7,446.1,495.6,447.8,495L447.8,495z"/>
<path d="M594.2,445.1c-5.2-2-10.5-3.3-16-4.1c-6.2-1-12.5-1.4-18.8-1.3c-5.8,0.2-11.5,1.1-17,2.9c-5.7,1.9-11.3,4.2-16.7,7
	c-4,1.8-7.8,4-11.5,6.3c-1.6,1.1-0.1,3.7,1.5,2.6c3-1.9,6.1-3.7,9.4-5.3c5.2-2.7,10.5-5,15.9-7c5.3-1.9,10.8-3.1,16.5-3.5
	c6.1-0.3,12.2,0,18.2,0.8c6,0.7,12,2.2,17.7,4.3C595.2,448.7,596,445.8,594.2,445.1L594.2,445.1z"/>
<path d="M680.1,516.6c-0.9-8.4-2.4-16.9-5.7-24.7c-2.9-7-7.1-13.3-12.3-18.8c-12-12.6-29.8-17-46.5-18.7c-21.1-2-42.4-1.4-63.4,2
	c-9.7,1.5-19.4,3.9-28.2,8.4C516,469,509,475,503.6,482.3c-12,16.3-13.2,37.1-12.3,56.6s4.5,39.7,16.1,56c5,7.1,11.4,13.1,18.9,17.5
	c8.7,4.9,18.7,7.6,28.5,9.2c19.5,3.3,39.5,1.8,58.2-4.4c9.3-2.9,18.1-7.2,26.2-12.7c8.2-5.7,14.6-13.3,20.1-21.5
	c10.9-15.8,17.7-34,20-53c0.5-4.6,0.7-9.3,0.6-14c-0.1-1.9-3.1-1.9-3,0c0.5,18.5-4.3,36.9-12.8,53.2c-4.3,8.4-9.6,16.2-15.8,23.2
	c-6.5,7-14.3,12.7-23,16.6c-17.3,8.2-36.4,12-55.5,11.1c-9.5-0.4-19-2-28.1-4.7c-8.9-2.7-17-6.7-23.8-13
	c-13.5-12.6-20-30.6-22.4-48.5c-1.3-9.9-1.8-20-1.4-30c0.3-9.7,1.7-19.4,5.4-28.4c3.4-8.1,8.6-15.3,15.3-21
	c7.1-6,15.6-9.9,24.6-12.4c9.6-2.6,19.6-3.9,29.5-4.8c10.6-0.9,21.2-1.2,31.8-0.9c16.9,0.5,35,2.2,49.8,11.2
	c13,7.9,21.1,21.6,24.4,36.1c0.9,4.2,1.6,8.5,2.1,12.8C677.2,518.5,680.2,518.6,680.1,516.6L680.1,516.6z"/>
<path d="M444.6,474.4l0.6,11c0.1,1.8,0.2,3.5,0.2,5.3s-0.2,3.1,1.3,4.1c0.7,0.4,1.6,0.2,2-0.5c0.4-0.7,0.2-1.6-0.5-2.1
	c0.4,0.3,0.1,0.1,0.2-0.2c0.1-0.4,0.1-0.8,0-1.2c0-0.7,0-1.5-0.1-2.2c-0.1-1.6-0.2-3.2-0.2-4.7l-0.5-9.5
	C447.4,472.5,444.4,472.5,444.6,474.4L444.6,474.4z"/>
<path d="M445.7,473c-6,1.8-12.2,3.3-18.2,5.3c-2.9,0.9-5.7,2.3-8.2,4c-2.5,1.8-4.9,3.7-7.8,5c-2.9,1.2-6,2.1-9,2.9
	c-3.2,0.9-6.5,1.8-9.7,2.7c-6.3,1.7-12.6,3.4-18.9,5.2c-7.2,2.1-14.3,4.4-21.3,7.1c-1.8,0.7-1,3.6,0.8,2.9
	c12.3-4.8,25.2-8.2,37.9-11.6c6.3-1.7,12.8-3.2,18.9-5.4c2.8-1,5.4-2.3,7.8-4c2.5-2,5.2-3.7,8.2-5c6.5-2.6,13.5-4.1,20.3-6.1
	C448.3,475.3,447.5,472.4,445.7,473L445.7,473z"/>
<path d="M445.7,489c-3.2,1.3-6.6,2.1-10,3.1c-1.6,0.5-3.2,0.9-4.8,1.5c-0.9,0.4-2,0.6-3,0.6c-2.2-0.3-4.5-0.9-6.6-1.6
	c-0.9-0.3-1.9-0.5-2.9-0.7c-0.4-0.1-0.8-0.1-1.2-0.2c-0.1,0-0.2,0-0.3,0c-0.4,0-0.4,0.1-0.6,0.1c-1.3,0-2.7,0.2-4,0.4
	c-1.8,0.5-3.6,1.2-5.4,1.7l-10.9,3.5l-21.4,6.9l-24.2,7.9c-1.8,0.6-1,3.5,0.8,2.9l43.2-14l10.5-3.4l5.2-1.7c1.7-0.7,3.6-1.1,5.4-1.2
	c0.6-0.1,1.2-0.1,1.8-0.1c0.9,0.1,1.7,0.3,2.6,0.5c2.2,0.7,4.5,1.3,6.8,1.7c1.1,0.2,2.3,0.2,3.4,0c1.6-0.5,3.2-1.2,4.9-1.6
	c3.8-1.1,7.6-2,11.3-3.5C448.3,491.2,447.5,488.3,445.7,489L445.7,489z"/>
<path d="M2368.4,1180.2c3.8,0.3,7.5,1.1,11.1,2.3c1.9,0.7,3.5,1.4,5.6,1c2.1-0.4,4.1-1.1,6-2.1c1.8-0.8,0.2-3.4-1.5-2.6
	c-1.8,1-3.7,1.6-5.7,1.8c-0.9-0.1-1.8-0.3-2.6-0.7c-0.8-0.3-1.5-0.5-2.3-0.8c-3.4-1-7-1.7-10.6-2
	C2366.5,1177,2366.5,1180,2368.4,1180.2L2368.4,1180.2z"/>
<path d="M811.3,429.5c-3.4-3.5-8.3-4.9-13-5.7c-5.1-0.9-10.3-0.9-15.4,0c-10.4,1.8-19,7.6-26.9,14.4c-4.7,4.1-9.3,8.4-13.9,12.6
	c-1.4,1.3,0.7,3.4,2.1,2.1c3.9-3.5,7.7-7,11.6-10.5c3.5-3.3,7.3-6.3,11.3-9c8.2-5.4,18-7.9,27.7-7c4.9,0.5,10.7,1.6,14.3,5.3
	c0.6,0.6,1.6,0.5,2.1-0.1C811.9,430.9,811.9,430,811.3,429.5L811.3,429.5z"/>
<path d="M752.3,632.2c-6,3.9-13.1,5.4-20.2,5.4c-3.6,0-7.1-0.4-10.7-1c-4-0.7-7.9-1.9-12-2.2c-14.7-1-25.1,12.1-35,20.9
	c-11.6,10.3-24.2,19.4-37.7,27.1c-3.3,1.9-6.7,3.7-10.1,5.5c-3.6,1.7-7,3.6-10.2,5.8c-6,4.3-10.2,10.4-13.2,17
	c-6.4,14-8.1,29.6-4.8,44.7c0.4,1.8,0.9,3.7,1.5,5.5c0.2,0.8,1.1,1.3,1.9,1c0.3-0.1,0.6-0.3,0.8-0.6c7-13.7,16.9-27,31.2-33.7
	c8.3-3.9,17.5-5,26.4-6.6c8.8-1.6,17.4-4,25.7-7.2c8.3-3.2,16.3-7,24-11.3c3.9-2.2,7.7-4.4,11.5-6.8s7.4-4.9,11.2-7.2
	c2-1.3,4.2-2.1,6.5-2.4c2.3-0.2,4.6-0.2,6.8,0c4.4,0.2,8.8,0.5,13.2,1c8.7,1,17.4,2.7,25.4,6.2c13.8,6,26.4,18.6,27.2,34.4
	c0.1,1.9,0,3.7-0.2,5.5c-0.2,1,0.6,2.2,1.8,1.8c2.1-0.8,3.9-2.3,5.1-4.2c1.4-1.9,2.8-3.9,4-6c2.6-4.3,4.7-9,6.3-13.8
	c2.8-9.2,3.1-19.3-0.4-28.4c-1.7-4.5-4.3-8.6-7.6-12c-3.6-3.5-7.7-6.6-12-9.2c-9.7-6.2-19.5-12.3-29.2-18.4l-8.2-5.2
	c-2.5-1.6-4.9-3.3-7.5-4.7c-3.9-2-9.3-3.7-12.8,0c-1.3,1.4,0.8,3.5,2.1,2.1c2.6-2.8,7.2-0.7,9.9,0.9c4.5,2.6,8.9,5.6,13.3,8.3
	l27.2,17.2c7.8,4.9,15.8,9.8,20.3,18.2c4.2,7.9,4.9,17.3,3.1,25.9c-1.1,5-2.9,9.9-5.4,14.5c-1.3,2.3-2.6,4.6-4.1,6.8
	c-1.2,1.8-2.6,4.3-4.8,5l1.8,1.8c2.3-16-7.6-31-20.7-39.3c-7.5-4.8-16.3-7.5-25-9.2c-4.4-0.8-9-1.4-13.5-1.8s-9.2-0.8-13.8-0.8
	c-2.3,0-4.6,0.4-6.8,1.2c-2.1,0.9-4.1,2-5.9,3.3c-3.9,2.5-7.8,5.1-11.8,7.5c-7.9,4.8-16,9.1-24.4,12.9c-8.4,3.8-17.2,6.8-26.2,8.9
	c-9.1,2.1-18.6,2.8-27.5,5.7c-16,5.2-27.6,17.8-35.8,32c-1,1.8-2,3.5-2.9,5.3l2.7,0.3c-4.4-14.5-3.9-30,1.5-44.2
	c2.6-6.7,6.3-13.3,11.8-18.1c5.7-4.9,13.1-7.7,19.6-11.3c13.3-7.3,25.9-15.9,37.5-25.8c5.5-4.7,10.6-9.9,16-14.6
	c5-4.2,10.9-8.2,17.6-8.7c4-0.2,7.9,0.8,11.8,1.7c3.5,0.8,7,1.2,10.6,1.5c6.9,0.6,13.8-0.5,20.2-3.2c1.6-0.7,3.1-1.5,4.6-2.5
	C755.4,633.8,753.9,631.2,752.3,632.2L752.3,632.2z"/>
<path d="M774.1,770c-17.9,9.2-38.3,12.8-58.3,12.5c-2.8,0-5.6-0.2-8.4-0.3s-5.7-0.7-8.6,0c-0.8,0.2-1.3,1.1-1,1.9
	c0,0.1,0.1,0.2,0.1,0.3c8.9,16,18.9,32,32.7,44.2c0.7,0.7,1.5,1.2,2.4,1.5c1.1,0.2,2.3,0.2,3.5,0l7.8-0.7c2.6-0.2,5.1-0.5,7.7-0.7
	c2.1-0.1,4.1-0.8,5.9-1.8c3.2-2.1,5.1-5.6,6.5-9.1c1.8-4.4,3.2-9,4.7-13.5c1.8-5.4,4-10.7,5.3-16.2c1.3-5.4,2-10.9,1.9-16.4
	c0-0.8-0.7-1.5-1.5-1.5s-1.5,0.7-1.5,1.5c0,4.6-0.4,9.2-1.4,13.8c-1.1,4.5-2.5,9-4.1,13.4l-4.7,13.7c-1.2,3.4-2.3,7.2-4.7,10
	c-1.1,1.4-2.6,2.4-4.3,2.8c-2.3,0.5-4.7,0.8-7.1,0.8l-7,0.7l-3.7,0.3c-1,0.1-2.2,0.4-3.1-0.2c-1.7-1.4-3.2-2.8-4.7-4.4
	c-1.5-1.5-2.9-3-4.3-4.6c-2.9-3.3-5.6-6.7-8.2-10.2c-5.7-7.9-10.8-16.2-15.5-24.8l-0.9,2.2c2.5-0.6,5.2,0,7.8,0.1s5,0.3,7.5,0.3
	c5.1,0.1,10.2,0,15.2-0.4c10.1-0.8,20.1-2.7,29.7-5.8c5.4-1.8,10.7-4,15.8-6.6C777.3,771.8,775.8,769.2,774.1,770L774.1,770z"/>
<path d="M630.4,390.2l10.8,33.7c-33,1.8-66.2-0.5-98.6-6.9c-11.3-2.2-22.7-4.9-34.2-3.8c-7.9,0.8-15.5,3.3-23,6.1
	c-13,4.8-25.8,10.4-36.5,19.1c-11.2,9.2-19.8,21.8-32.5,28.8c4.6-9.7,7.2-20.1,11.7-29.8c10-21.6,28-38.4,50.2-46.8
	c22.5-8.4,47.2-7.4,71.1-5.3c7.8,0.7,15.2,2.7,23,2.9c19.3,0.4,38.9-2.9,57.6,1.9"/>
<path d="M629,390.6l10.8,33.7l1.4-1.9c-33.6,1.9-67.3-0.6-100.3-7.2c-8.2-1.6-16.4-3.4-24.7-3.7c-8.1-0.2-16.2,1.1-23.8,3.8
	c-7.4,2.4-14.7,5.2-21.8,8.4c-7,3-13.6,6.8-19.7,11.2c-11.2,8.4-19.4,20.2-30.9,28.2c-1.4,1-2.9,1.9-4.4,2.8l2,2.1
	c3.7-7.9,6.2-16.3,9.4-24.4c2.7-7,6.2-13.6,10.5-19.8c8.3-11.7,19.3-21.2,32.1-27.8c14.8-7.6,31.5-10.3,48-10.7
	c8.6-0.2,17.2,0.2,25.8,0.9c4.4,0.3,8.7,0.7,13.1,1.4c4.3,0.7,8.8,1.5,13.2,1.8c8.8,0.6,17.8-0.1,26.7-0.4c8.8-0.3,17.9-0.4,26.7,1
	c2.2,0.4,4.3,0.8,6.5,1.4c1.9,0.5,2.7-2.4,0.8-2.9c-17.7-4.5-36-2-54-1.9c-4.5,0-9-0.3-13.4-1c-4.5-0.7-9-1.5-13.5-2
	c-8.7-0.8-17.5-1.4-26.2-1.4c-17-0.1-34.3,1.9-50,8.8c-13.4,5.9-25.1,14.9-34.3,26.2c-4.6,5.6-8.6,11.8-11.7,18.4
	c-3.8,8-6.2,16.5-9.5,24.7c-0.8,2-1.7,4-2.6,6c-0.4,0.7-0.1,1.7,0.7,2c0.4,0.2,0.9,0.2,1.4,0c12.2-6.8,20.5-18.3,30.8-27.4
	c11.4-10,25.5-16,39.6-21.1c7.5-2.7,15.2-5.1,23.2-5.5c8.4-0.4,16.7,1,24.9,2.7c16.3,3.3,32.8,5.8,49.4,7.3
	c16.5,1.4,33.2,1.8,49.8,1.2c2.1-0.1,4.2-0.2,6.3-0.3c0.8,0,1.5-0.7,1.5-1.6c0-0.1,0-0.2,0-0.3l-10.8-33.6
	C631.3,388,628.4,388.8,629,390.6L629,390.6z"/>
<path d="M740.7,411.6c4.1-10.1,3.3-21.5,7.4-31.6c0.7-1.8-2.2-2.6-2.9-0.8c-4.1,10.1-3.3,21.5-7.4,31.6
	C737.1,412.6,740,413.4,740.7,411.6z"/>
<path d="M648.8,420.3l-9.7-28.6c-0.6-1.8-3.5-1-2.9,0.8l9.7,28.6C646.6,422.9,649.5,422.1,648.8,420.3z"/>
<path d="M826.4,382.4c0.8,0,1.5-0.7,1.5-1.5s-0.7-1.5-1.5-1.5s-1.5,0.7-1.5,1.5S825.6,382.4,826.4,382.4z"/>
<path d="M843.2,599.9c1.1,23.7,1.2,47.4,0.3,71.1c-0.4,11.7-1,23.4-2.4,35c-1.4,11.1-3.6,22-6.5,32.8c-5.7,21.3-13.5,42-19.5,63.2
	c-3,10.6-5.3,21.2-7.4,32c-2.1,10.3-4.1,21.2-8.8,30.7c-3.5,7.1-9.3,13-15.3,18.1c-6.3,5.3-13.4,10.1-21.2,13
	c-1.6,0.6-3.3,1.1-5,1.5c-1.9,0.4-1.1,3.3,0.8,2.9c7.7-1.7,14.9-5.9,21.3-10.5c7.1-4.9,13.3-10.8,18.5-17.6
	c5.7-7.8,8.3-17.5,10.5-26.7c2.6-10.8,4.3-21.8,7-32.6c5.5-21.7,13.3-42.6,19.6-64c3.2-10.7,5.8-21.5,7.7-32.5
	c1.8-11.7,2.9-23.5,3.4-35.4c1.2-24,1.3-48,0.5-72c-0.1-3-0.2-6-0.4-8.9C846.1,597.9,843.1,597.9,843.2,599.9L843.2,599.9z"/>
<path d="M757.8,897.2c-23.5,3-47.2,4.6-70.8,4.7c-11.7,0.1-23.5-0.3-35.2-1c-5.8-0.4-11.6-0.8-17.5-1.4c-4.9-0.5-9.8-0.9-14.7-1.8
	c-4.7-0.9-9.3-2.1-13.9-3.5c-4.3-1.2-8.5-2.7-12.6-4.6c-1.7-0.8-3.3,1.8-1.5,2.6c7.5,3.6,15.8,5.9,23.9,7.7c4.2,0.9,8.5,1.6,12.8,2
	c5.9,0.7,11.8,1.2,17.7,1.6c23.8,1.7,47.6,1.9,71.4,0.5c13.5-0.8,26.9-2,40.3-3.8C759.7,900,759.7,897,757.8,897.2L757.8,897.2z"/>
<path d="M344.1,627.9c4.4,26.8,9.9,53.4,16.4,79.8c5.7,23,11.9,46.7,25.1,66.7c6.8,10.3,15.4,18.9,24.8,26.7
	c9.7,8.1,19.7,16.2,30.3,23.3c10.9,7.2,22.8,12.6,34.7,17.8l37.9,16.3l76.1,32.8l9.3,4c1.8,0.8,3.3-1.8,1.5-2.6l-75.6-32.6
	l-38.1-16.4c-11.9-5.1-24-10-35.3-16.3s-21.3-14.3-31.3-22.3c-9.7-7.7-19.3-15.7-27-25.4c-14.5-18.4-21.6-41.5-27.4-63.9
	c-6.8-26-12.4-52.3-17-78.8c-0.6-3.3-1.1-6.5-1.7-9.8C346.7,625.2,343.8,626,344.1,627.9L344.1,627.9z"/>
<path d="M701.5,903.6c-0.9,6.5-1.8,13.1-4.3,19.2c-1.2,3-2.9,5.8-5,8.3c-2.3,2.6-4.7,5-7.3,7.3l-8.2,7.8c-2.6,2.3-5,4.7-7.2,7.3
	c-4.6,5.6-6,13-7.7,19.8c-1,4.1-1.8,8.3-2.6,12.4c-0.7,3.9-1.5,7.8,0,11.7c0.7,1.8,3.6,1,2.9-0.8c-1.3-3.5-0.6-7,0.1-10.6
	s1.4-7.4,2.3-11s1.7-7.2,2.8-10.7c0.9-3.3,2.4-6.3,4.5-9c2.2-2.5,4.6-4.9,7.1-7.1l8.2-7.8c4.8-4.6,9.6-9.1,12.4-15.3
	c3-6.6,4.1-13.7,5.1-20.8c0.2-0.8-0.2-1.6-1-1.8C702.6,902.4,701.8,902.8,701.5,903.6L701.5,903.6z"/>
<path d="M322.6,609.8c-4.2,7.2-2.9,15.9,0.4,23.2c1.9,3.9,4.1,7.6,6.6,11.1l1.8,2.6c0.7,0.8,1.3,1.7,1.7,2.8
	c0.2,0.9-0.7,1.4-1.3,1.9c-0.9,0.7-1.8,1.5-2.7,2.2c-3.5,3.2-6.7,6.7-9.5,10.6c-1.1,1.6,1.5,3.1,2.6,1.5c2.4-3.4,5.2-6.6,8.3-9.4
	c1.5-1.3,3.4-2.5,4.6-4s1-3.6,0-5.3c-2.2-3.7-4.9-7-7.1-10.8c-2.3-3.6-3.9-7.6-4.7-11.8c-0.9-4.4-0.3-9.1,1.9-13.1
	c0.4-0.7,0.1-1.6-0.6-2C323.9,608.9,323,609.2,322.6,609.8L322.6,609.8z"/>
<path d="M632.2,344c0.8,0,1.5-0.7,1.5-1.5s-0.7-1.5-1.5-1.5s-1.5,0.7-1.5,1.5S631.3,344,632.2,344z"/>
<path d="M632.2,344c0.8,0,1.5-0.7,1.5-1.5s-0.7-1.5-1.5-1.5s-1.5,0.7-1.5,1.5S631.3,344,632.2,344z"/>
<path d="M137.8,645.6c0.8,0,1.5-0.7,1.5-1.5s-0.7-1.5-1.5-1.5s-1.5,0.7-1.5,1.5S137,645.6,137.8,645.6z"/>
<path d="M879.8,568.8c3.7-4.3,7-9,9.6-14c11-19.9,17.5-42,19.1-64.6c0.7-9.6,0.3-19.6-4-28.2c-4.5-8.9-13-15.4-22.2-19
	s-19.4-4.8-29.3-5.1c-8.2-0.3-16.5,0.1-24.7,1.1l-0.3,1.7c-3.8,15.5-7.6,31.7-3.5,47.1c2.5,9.6,7.9,18.1,11.8,27.3
	c9.4,22.3,9.7,47.2,9.8,71.4v1.2C858.7,584,871,578.5,879.8,568.8z"/>
<path d="M880.9,569.9c4.4-5.1,8.1-10.7,11.2-16.7c9.4-17.8,15.4-37.2,17.5-57.2c1.3-12.5,1.8-26.4-5.2-37.4
	c-6.4-10.2-17.4-16.4-28.9-19.4c-7.5-1.8-15.1-2.7-22.8-2.8c-8.2-0.3-16.3,0.1-24.4,1.1c-0.7,0-1.3,0.5-1.4,1.1
	c-0.7,4.2-1.9,8.2-2.8,12.3c-1.2,5.2-2,10.5-2.5,15.9c-0.5,5.2-0.4,10.4,0.3,15.6c0.8,5.1,2.3,10.1,4.3,14.8c2,4.6,4.3,9.1,6.5,13.7
	c2.2,4.6,4.1,9.4,5.6,14.3c2.9,9.9,4.6,20,5.3,30.2c0.8,10.7,0.8,21.4,0.9,32.2c0,0.8,0.7,1.5,1.5,1.5c0.1,0,0.2,0,0.4,0
	C859.2,585.4,871.8,579.8,880.9,569.9c1.3-1.4-0.8-3.5-2.1-2.1c-8.8,9.5-20.9,14.8-33.1,18.4l1.9,1.4c-0.2-19.6-0.1-39.3-5-58.5
	c-1.2-4.8-2.8-9.5-4.7-14.1c-2-4.7-4.3-9.2-6.5-13.8c-2.3-4.5-4.1-9.2-5.5-14.1c-1.3-5.1-1.8-10.4-1.6-15.6c0.2-6,1-12,2.3-17.9
	c1-4.8,2.3-9.4,3.2-14.2l-1.4,1.1c6.9-0.8,13.8-1.2,20.8-1.1c6.7,0,13.4,0.5,20,1.6c11.5,2,22.9,6.8,30.5,16.1
	c8,9.8,8.3,22.9,7.4,35c-1.7,20.1-7.2,39.6-16.4,57.5c-3.3,6.5-6.9,12.9-11.8,18.2C877.5,569.2,879.6,571.3,880.9,569.9z"/>
<path d="M342.3,624.3l1.7,3.1l0.2,0.4c0.2,0.3,0.5,0.6,0.9,0.7c0.4,0.1,0.8,0.1,1.2-0.2c0.3-0.2,0.6-0.5,0.7-0.9
	c0.1-0.4,0-0.8-0.2-1.2c-0.6-1.2-1.3-2.4-2-3.5c-0.2-0.3-0.5-0.6-0.9-0.7c-0.4-0.1-0.8,0-1.2,0.2c-0.3,0.2-0.6,0.5-0.7,0.9
	C342,623.5,342.1,623.9,342.3,624.3c0.7,1.1,1.3,2.3,2,3.5l2.6-1.5l-1.7-3.1l-0.3-0.5c-0.4-0.7-1.3-0.9-2-0.5
	C342.2,622.6,341.9,623.6,342.3,624.3z"/>
<path d="M1052.3,317.4c-15-6.2-31.3,5.6-47.5,5.8c-12.4,0-23.7-6.7-29.7-17.5l-1.1-1.6c-0.6-5.8,1.5-11.6,4.3-16.8s6.6-9.7,9.6-14.8
	c7-12,9.8-25.9,7.9-39.6c-1.6-11.6-6.8-23-16-30.2s-21.5-9.7-33.3-11.4s-23.9-3-34.3-8.7v-0.4c-12.3-12.2-18-29.5-24.8-45.4
	s-16.3-32.4-32.4-39.1c-5.1-2.1-10.5-3.1-15.9-4.1l-38.4-7c-11.7-2.1-23.6-4.3-35.3-2.7c-9.8,1.3-19.9,5.1-29.2,1.8
	c-13.2-13.5-18.3-32.8-26.4-49.9S687.3,1.3,668.3,1.1C648,1,633,19.8,613.9,26.5c-28.1,9.9-60.2-7.8-88.6,1.3
	c-21.7,6.9-36.4,28.1-58.1,35.2c-23.3,7.7-48.6-2.7-73-1.2c-20.3,1.3-39.4,10.6-52.9,25.8l-0.6,0.3c-9.8,12.5-20.2,26.6-19.3,42.4
	c0.7,11.8,7.7,23.8,3.2,34.8c-1,2.6-2.8,5-5.4,6c-3.8,1.5-8.2-0.4-11-3.4s-4.5-6.8-6.6-10.2c-3.4-5.4-8.1-10-13.6-13.3
	c-6-3.6-13.5-5.6-20.1-3.1c-7.6,2.9-12.2,11.2-19.9,14c-2,0.8-4.2,1.1-6.1,2.2c-3.2,1.9-4.7,5.8-4.5,9.5c0.4,3.7,1.7,7.2,3.9,10.2
	c2,3,4.7,6.4,3.7,10c-0.6,2.4-2.7,4-4.7,5.5c-7.3,5.3-14.9,10.2-23.3,13.4s-17.7,4.5-26.4,2.5c-11.8-2.7-21.7-11.6-27-22.4
	s-6.2-23.6-3.9-35.4c1.1-5.5,2.8-10.9,3.2-16.5c-6.9,4.8-12.3,11.3-15.6,19l-0.6-0.3c-12,16.5-20.7,35.2-25.6,55
	c-1.6,5.9-2.5,11.9-2.6,18c0,16.8,8.8,32.4,19.5,45.4l0.2,0.3c2.5,3.6,11.1,9.7,20.2,15.3c8.6,5.3,15,15.8,8,22.1
	c-7.3,6.6-19,11.8-28,15.7c-18.3,8-41.9,7-61.8,4.2c1.2,2,2.7,3.9,4.4,5.5c7.3,6.8,17.4,9.2,26.2,13.2c8.7,3.9,17.3,8.8,23.8,15.9
	c15.4,16.9,7.7,38.8-8,52.3c-16.6,14.3-38.2,19-58.5,10.1c-19.4-8.5-33.4-25.6-41-45c-8.7-22-10.4-45.9-11.9-69.3
	c-1.4,3.4-2.6,6.9-3.8,10.5c-9.1,28.4-10,61.2,7.6,86.6c8.1,11.8,19.3,21,31.4,28.6c6.2,3.9,12.7,7.4,19.4,10.5
	c6.4,3,13.4,5.4,19.3,9.5c13,8.9,12.4,25.4,4.1,37.5c-8.7,12.6-22.8,19.8-32.9,31.1c-21.2,23.9-6,55.6,18.3,70
	c13.2,7.9,28.2,11.9,42.9,15.8c6.8,1.8,14.5,4,19.3,9.6c4,4.7,5.9,12.2,1.8,17.4l-0.1,2c-4.2,9.6-7.9,19.7-8.5,30.1s2.2,21.5,9.6,29
	c4.9,5,11.4,8,17.1,12c12.1,8.2,21.6,21.2,23.1,35.8c1.8,17-6.7,33.1-13.5,48.7s-11.9,34.3-3.7,49.2c6.9,12.4,21.6,18.9,35.9,19.6
	s28.2-3.4,41.9-7.5l23.5-7c7-2.1,14.2-4.2,21.5-4.4h0.2c10.8-0.2,12.5,8,9.6,21.7l-6.7,21.5c17.2-26.8,31.2-58.6,40.1-89.2
	s11.4-63.6,3.2-94.4l0,0c-6-2.2-11.7-5.4-16.6-9.4c-11.9-10-20-23.7-26.9-37.5c-6.8-13.6-12.8-27.7-18.7-41.7
	c-5.2-12.3-10.5-25.1-10.2-38.5l29.3,20.1c3.7,2.5,7.4,5.1,11.7,6.5c6.6,2.2,13.9,1.6,20.7,3c9.2,1.9,17.2,7.6,22.1,15.5l-0.2-0.3
	c2.4,3.1,6.3,5.1,10.2,6.2c5,1.4,10.2,1.7,15,3.5c12.5,4.8,19,18.4,29.5,26.7c-11.3-15-19.5-32.1-24.2-50.3
	c-1.4-5-2.1-10.2-2.2-15.4c0.2-7.2,2.4-14.2,2.5-21.5c0.1-9.9-3.9-19.3-11.1-26.1v-0.4c-6.8-7.8-13.9-16.6-13.8-27
	c0.1-8.7,5.6-16.6,12.3-22.2s14.6-9.6,21.8-14.4c6.9-4.6,13.2-10.1,18.7-16.3c2.6-2.6,4.6-5.6,6-9c3.3-9.2-1.9-19.3-8.6-26.4
	c-3.4-3.7-7.4-7.3-8.4-12.2c-1.2-6.5,3.3-12.5,7.6-17.6c7.2-9.1,16.7-16,24.3-24.8c7.8-8.9,11.2-19.1,9.4-31
	c-3.8-23.9-24.3-41.4-26.9-65.6c-2.5-22.5,12.6-42.7,29-56.4c16.2-13.4,40.6-25.8,59.8-10.7c20,15.7,4.1,44.3-11.5,56.9
	c-2.2,1.8-4.5,3.3-7,4.6c22.6-11.4,49-25.7,53.2-53.4c1.1-6.9,0.3-13.9-2.5-20.3c6.6,2.8,13,6,19.2,9.5c5.9,4.1,12.9,6.1,17.9,11.1
	v3c-8,9-4,20,3,29c-0.4,2.1-1,4.1-2,6c-10,9-24,15-26,29c3,16,19,22,32,30c5,4,4,12-1,16c-9.7,6.8-17.3,16.1-22,27c-5,13,1,27,12,34
	c19,10,40,14,61,16c19,1,44-8,43.7-31.5v1.8c0.7-7.9-2.5-16.3-8.9-21c-2-1.4-4.1-2.5-6.3-3.4c-2.4-1.1-4.9-1.8-7.5-2.1
	c-6.2-0.7-12.5,1.7-17.1,5.9c2.7-1.7,5.5-3.4,8.6-3.6c2.2-0.1,4.4,0.4,6.4,1.3c3.2,1.3,6.1,3.3,8.5,5.7c2,1.9,4.1,3.7,5.5,6.1
	c2.6,4.6,1.8,10.5-0.5,15.4l0.3-0.4c-2.7,6.8-9.7,9.8-16.7,10.8c-25,2-49-7-69-23c-4-3-2-10,3-13c20-10,42-14,62.8-17.5l-0.5,0
	c3.7-1,7.4-2.1,10.6-4.2s5.8-5.4,6-9.2c0.2-3.4-1.5-6.7-3.8-9.1c-2.5-2.3-5.2-4.3-8.2-5.9c-1.9-1.1-4-2.5-3.7-5.1
	c0.1-0.7,0.4-1.3,0.8-1.9c1.4-1.8,3.5-2.4,5.6-2.7c7.7-1.3,15.6,0.3,23.4-0.3c6-0.5,14.3-4.6,18.3-9.1c4.2-4.7,5.5-9.7,8.2-18.5
	l-1.6,5.2c2.3-6.9,2.6-10.8,6.1-13.9c1.7-1.5,11.7-2.8,13.5-4c4.1-2.6,6.1-12.2,8.4-16.5c2.8-5.2,6.7-10,12.6-11.7
	c2.7-0.8,5.6-0.6,8.2,0.6c9.4,4.7,4.8,18.9,12.4,24.4c1.8,1.1,3.7,1.9,5.7,2.5c4.9,2,9.2,5.3,12.2,9.7c-7.2-4.7-16.6-6.4-24.8-3.7
	s-14.9,10-16.2,18.5c-0.7,4.9,0.3,9.8,1.8,14.5c1.3,3.9,2.9,7.8,4.9,11.4c6.1,11,15.1,20.1,24.8,28.2s20,15.4,31.8,19.4l0.5,0.3
	c-0.8-0.2-1.7-0.3-2.6-0.3c-1.7,0.1-3.3,0.5-4.9,1.2c-5.7,2.2-11.2,4.8-16.5,7.7c-3.1,1.5-5.9,3.5-8.3,6c-2.2,2.7-3.9,5.7-5,8.9
	c-3.3,8.4-5.7,17.2-7.2,26.1c5-0.4,9.6-2.8,14-5.2l32.9-17.9c5.2-2.8,10.4-5.6,16-7.1s11.9-1.5,17.2,1.1l0.6-0.1
	c8.2,14.1,10,31.6,3.8,46.7l-0.5,0.7c34.6-4.8,69.8-0.6,102.3,12c0.6,4.4,1.1,9.3-1.5,12.9c-1.2,1.7-2.9,2.8-4.3,4.3
	c-4.9,5.1-5.9,12.7-6.7,19.7c-3,27.4-6.8,55.6-21.1,79.2c-4.9,8.1-11,15.5-18,21.9c-6.5,6.1-14,10.9-22.2,14.3
	c-4.1,1.6-8.4,2.9-12.8,3.7l0.4,30.1c4.3,1,7.9,3.7,12,5.3s9.3,1.8,12.3-1.4c1.9-2,2.4-5,2.6-7.7c0.3-3.2,0.4-6.4,0.3-9.6
	c-0.1-3.7-0.4-7.4,0.5-10.9c1.4-5.5,5.7-9.8,9.7-13.8v0.2c10.9-8.4,19.3-19.5,24.6-32.2c2.5-6.1,4.2-12.4,6.5-18.6
	c1.3-3.7,3-7.3,5-10.6c0.6-0.9,1.4-1.9,2.4-1.7c0.5,0.1,0.9,0.4,1.2,0.8c1.9,2.1,2.9,4.8,3.1,7.6c0.5,7.4,0.6,15-1.2,22.2
	c-0.8,3.3-2,6.5-2.7,9.9c-0.2,1,0.1,2,0.9,2.6c1.5,1.1,3.2-0.4,4.3-1.8l-0.1-0.1c19-28.3,23.4-65.9,11.5-97.8
	c8.3,1.6,16.8,1.8,25.1,0.6c6.4-0.9,12.8-2.8,17.9-6.8c8.5-6.7,11.7-18.8,9.8-29.4s-8.3-20.1-16-27.8s-16.7-13.9-25.2-20.6
	c-9.8-7.6-19.1-15.8-27.9-24.6c-6.3-6.3-12.6-13.5-13.8-22.3c-1-7.6,2.1-15.4,7.6-20.9s12.9-8.5,20.5-9.3s15.5,0.6,21.7,5
	c6.5,4.6,10.6,12,17,16.8c6.8,5,15.8,6.5,24.2,5.5s16.4-4.3,24-8.1c9.5-4.8,20.2-10.6,30.1-3.6c1.9,1.4,3.5,3.1,4.8,5
	c5,7.4,5.6,16.2,6.1,24.8C1069.9,340.5,1065.5,322.9,1052.3,317.4z"/>
<path d="M1052.7,316c-9.7-3.6-19.5-0.9-29.1,2c-11.8,3.5-23.4,6-34.7-0.3c-4.8-2.7-8.9-6.6-11.8-11.3c-3.4-5.2-1-11.5,1.6-16.7
	c5.2-10.3,12.8-18.5,16.3-29.8c5.9-19.2,2.9-43.4-12.9-57.2c-16.5-14.4-40.1-11.2-59.8-17.4c-1.6-0.5-3.2-1.1-4.8-1.8l-1.4-0.6
	c-0.5-0.8-1.6-1-2.4-0.5c0,0-1-1.8-1-1.8c-3.5-4.9-7.5-9.1-10.5-14.5c-5.4-9.6-9.1-20-13.4-30.1c-7.3-17.2-17.9-35-36.7-41.1
	c-12.1-3.9-25.3-5.2-37.8-7.5c-12.2-2.2-24.6-5.1-37-5.6c-5.3-0.2-10.6,0.2-15.9,1.1c-6.5,1.1-13.1,3-19.8,2.3
	c-6.4-0.7-9.9-7.1-13-12.2c-2.8-4.8-5.3-9.7-7.5-14.9c-8-18.3-14.4-38.5-31.2-50.9c-15.8-11.7-33-7.9-48.6,1.8
	c-8.8,5.5-17.2,12.1-27,15.7c-10.9,4-22.7,3.7-34.1,2.5c-20.4-2.2-41.7-7.5-61.3,1.4c-18.6,8.4-31.8,25.9-51.2,32.6
	c-23.9,8.3-49-2.4-73.4-1.1c-20.7,1.2-39.1,10.9-53.4,25.6c-7.1,7.3-12.8,15.9-17,25.2c-4.1,9.4-4.7,18.6-2.4,28.5
	c1.3,5.6,3.2,11.3,3.2,17.1c0,3.4-0.6,7.2-2.6,10.1c-3.3,4.8-9.1,3.5-12.7-0.2c-3.8-3.9-5.8-9.5-9.2-13.8
	c-3.3-4.2-7.5-7.8-12.2-10.4c-8.5-4.7-18-5.5-26.1,0.4c-3.7,2.7-6.8,6.4-10.6,8.9s-9.3,2.6-12.5,6.3c-6.4,7.3-0.8,15.6,3,22.4
	c1.5,2.7,2.3,4.3,0.8,7.1c-1.2,2.3-2.5,3.2-4.6,4.7s-4.4,3.1-6.7,4.6c-5.4,3.6-11.3,6.5-17.5,8.6c-12.9,4.2-26.8,3-37.5-5.7
	c-9.4-7.6-14.8-19.1-16-31.1s3-22.8,4.1-34.6c0-0.8-0.7-1.5-1.5-1.5c-0.3,0-0.5,0.1-0.8,0.2c-7,5-12.6,11.7-16.2,19.5l2-0.5
	l-0.6-0.3c-0.7-0.4-1.6-0.1-2,0.5c-10.9,15.1-19.2,32.1-24.3,50c-5.1,17.7-5.4,34.2,3,51c3.6,7.1,8.1,13.7,13.2,19.7
	c4.9,5.9,12.1,10,18.5,14.1c8,5,17.3,14.7,7.2,22.6c-6.8,5.3-14.8,9-22.7,12.5c-20,8.9-42.1,8.2-63.4,5.2c-1.2-0.2-2.5,1-1.7,2.2
	c4.6,7.2,11.7,11.3,19.4,14.5c10,4.1,20.1,7.8,28.8,14.5c8.4,6.5,14.7,15.5,14.4,26.5c-0.3,10-5.6,19.3-12.5,26.3
	c-14.8,15.2-37.1,21.6-57.2,14.3c-18.5-6.7-32.6-22.3-40.9-39.7c-10.9-23.1-12.6-49.3-14.3-74.4c0-0.8-0.7-1.5-1.5-1.5
	c-0.7,0-1.2,0.4-1.4,1.1c-10.5,26.5-14.9,57.5-3.5,84.5c12.4,29.5,41,45,68.6,57.6c7.2,3.3,14.5,7.3,17.5,15.2
	c2.4,6.6,1.4,14.1-1.5,20.3c-6.3,13.5-20.3,21.3-30.9,31.1c-9.1,8.5-15.5,19.3-15.2,32.1c0.2,11.4,5.3,22.2,12.5,30.9
	c9,10.8,21.3,17.6,34.3,22.5c7.8,2.9,15.8,5.1,23.8,7.2c7.2,1.9,15.5,3.7,20.5,9.7c3,3.5,4.6,8.8,2.9,13.2c-0.9,2.2-1.4,3.9-2.1,6.1
	c-2.5,7.2-5.6,13.9-7,21.5c-2.4,12.8-0.7,27.3,8.5,37.2c4.9,5.2,11.4,8.4,17.3,12.3c6.6,4.4,12.3,10.1,16.5,16.8
	c9.7,15.6,7.2,32.6,0.7,48.9c-9.6,24-28.4,57.8-2.2,78.5c24.7,19.5,58.7,5.9,85.1-2c8.8-2.6,17.8-5.9,27-6.8
	c6.3-0.6,11.6,0.6,12.4,7.7c1,8.7-2.8,17.5-5.4,25.6l-2.4,7.8c-0.5,1.7,1.8,2.5,2.7,1.2c17.2-27.3,30.6-56.8,39.7-87.8
	c9.4-31.5,12-65,3.7-97l-1.5,1.9l0,0c1.8,0.1,1.9-2.4,0.4-3c-23.5-9-35.9-31.9-46.2-53.4c-5.5-11.5-10.5-23.3-15.4-35.1
	c-5-12-9.8-24.1-9.7-37.2l-2.3,1.3l22.4,15.4c6,4.1,12,9.1,18.9,11.4c7.7,2.6,16,1.4,23.7,3.7c7.5,2.4,14,7.4,18.2,14.1
	c0.4,0.7,1.3,1,2.1,0.6s1-1.3,0.6-2.1l-0.2-0.3l-2.4,1.8c8,9.3,21.7,6.4,31.3,13c9.2,6.2,14.9,16.3,23.4,23.4c1.2,1,3.5-0.3,2.3-1.8
	c-7.2-9.6-13.1-20-17.7-31c-4.5-11-9-23.8-8.3-35.8c0.7-11,4.2-20.9,0.4-31.8c-1.4-4-3.4-7.7-6-11c-1-1-2-1.9-3.1-2.8
	c-0.4-0.5-1-2.2-1.5-2.8c-8.3-9.9-16.3-21.7-9.6-34.7c5.6-10.8,16.8-16.6,26.8-22.8c14.9-9.3,36.8-25,28.2-45
	c-1.7-3.8-4-7.3-6.7-10.4c-4.2-4.9-10.3-9.4-9-16.7c1-5.8,5.8-10.7,9.5-15s8.1-8.3,12.4-12.3c7-6.6,14.1-13.5,17.6-22.6
	c3.4-8.9,2.8-18.4,0-27.3c-5.8-18.7-20.3-33.7-24.3-53.1c-4.8-23.2,9.8-44.2,26.7-58.6c8.9-7.6,19.4-14.3,30.9-17.1
	c12.2-2.9,26.9,0.3,33.9,11.7c11.2,18.5-8.1,44-24,52.7c-1.7,0.9-0.2,3.5,1.5,2.6c14.8-7.5,30.3-15.5,41.3-28.2
	c11.3-13,16.8-31.1,9.8-47.5l-2,2.1c7.6,3.3,14.9,7,22,11.2c3,1.8,6.2,3.2,9.3,5c1.6,0.9,4.9,2.5,5,4.5c0.1,1.4-1.6,3.1-2.2,4.2
	c-2.7,5-2.7,10.7-0.8,15.9c1,3,2.4,5.8,4.2,8.4c1,1.5,1.5,1.9,1.4,3.6c-0.1,2.6-2.5,4.6-4.4,6.1c-8.7,7-19.9,13.1-22.8,24.9
	c-2.4,9.9,8.7,19.4,15.9,24.2c2.5,1.7,5.2,3.2,7.8,4.7c2.9,1.6,7,3.1,9.2,5.6c7.1,7.8-4.8,14.6-9.5,19.1
	c-8.7,8.3-17.5,20.6-16.6,33.2c0.9,13.3,9.8,22.2,21.4,27.4c14.6,6.5,30.4,9.9,46.2,11.9c12.7,1.6,25.3,1.2,36.8-4.9
	c10.5-5.5,16.9-15.2,17-27.1h-3v1.8c0,0.8,0.7,1.5,1.5,1.5s1.5-0.7,1.5-1.5c1.3-22.4-24.9-36.3-42.3-21.7c-1.3,1.1,0.4,3.2,1.8,2.4
	c3.3-2,6.6-3.9,10.7-3.1c3.9,0.7,7.5,3.2,10.3,5.7c6.6,5.8,9,11.9,5.4,20.2c-0.4,0.7-0.1,1.6,0.6,2c0.7,0.4,1.6,0.1,2-0.5l0.3-0.4
	l-2.6-1.5c-6.4,13.5-26.2,11.1-38.2,8.8c-13.2-2.6-25.7-7.8-36.9-15.3c-2.7-1.8-7.2-4.1-8.9-6.7c-2.3-3.6,0-7.8,3.3-10
	c6.1-3.9,14-6.1,20.8-8.2c13.6-4.2,27.7-6.7,41.7-9.1c1.7-0.3,1.3-3.1-0.4-3l-0.5,0l0.4,3c7.8-2.2,18.6-6.5,17.6-16.6
	c-0.4-4.4-3.4-8.1-6.8-10.7c-1.9-1.5-4-2.6-6-3.9c-2.4-0.7-2.6-2.1-0.6-4c0.2-2,1.2-3,2.9-3c1.8-0.7,4.5-0.4,6.4-0.4
	c11.4-0.1,21.3,1.4,31.3-5.4c8-5.5,10.4-14.2,13.2-23l-2.9-0.8l-1.6,5.2c-0.6,1.9,2.3,2.6,2.9,0.8c1.4-4.5,2.1-11.5,6.9-13.7
	c3.5-1.6,7.7-1.3,11.2-2.9c3.2-1.5,4.7-4.8,6-7.9c2.1-5,3.5-10,6.9-14.3c4.6-5.8,14.7-10.2,19.5-2c2.2,3.9,2.3,8.7,3.6,13
	c1,3.3,2.6,6.3,5.6,8.1c2.5,1.5,5.4,2.1,7.9,3.5c3.5,1.9,6.5,4.6,8.8,7.8l2.1-2c-10.7-6.5-24.6-7.4-34.5,1
	c-10.7,9-10.1,22.2-5.3,34.2c5.4,13.4,15,24.3,25.8,33.7c5.4,4.9,11.2,9.3,17.3,13.4c5.8,3.7,12,5.8,18,9l1.2-2.7
	c-5.5-1.1-10.5,1.6-15.3,3.9c-5.6,2.6-11.8,5.3-16.6,9.4c-4.5,3.9-6.6,9.5-8.6,15c-2.6,7.3-4.6,14.8-5.8,22.5
	c-0.1,0.9,0.4,2,1.4,1.9c6.8-0.8,12.4-4.1,18.4-7.4l22-11.9c7.3-4,14.8-8.8,23-10.9c4-1.1,8.2-1.3,12.2-0.4c2,0.5,3.5,1.8,5.5,1.3
	l-1.7-0.7c4.2,7.3,6.7,15.5,7.2,24c0.3,6.4,0.2,16.5-3.9,21.9c-0.9,1.2,0.6,2.4,1.7,2.2c34.3-4.5,69.2-0.4,101.5,12l-1.1-1.4
	c0.7,5.4,0.9,9.7-3.1,14c-1.9,2.1-3.9,3.7-5.3,6.3c-3.1,5.6-3.6,12.2-4.2,18.4c-1.8,16-3.9,32.1-8.3,47.7
	c-9.1,31.6-30.8,61-64.4,68.2c-0.6,0.2-1.1,0.8-1.1,1.5l0.4,30.1c0,0.7,0.5,1.3,1.1,1.4c7.8,2.3,21.5,12.7,27.3,1.1
	c2.6-5.2,1.9-12.2,1.8-17.8c-0.1-4.6,0-8.9,2.3-13c1.9-3.4,4.8-6.2,7.6-8.9l-2.6-1.1v0.2c-0.1,1.4,1.6,1.8,2.6,1.1
	c8.2-6.4,15.1-14.3,20.3-23.3c6.2-10.8,8.3-23,13.7-34.1c0.4-0.9,1-2.8,1.8-3.5c2-1.6,3.1,0.1,3.8,2.3c1.1,3.1,0.8,7,0.9,10.3
	c0,6.3-0.8,12.5-2.6,18.5c-0.8,2.7-3.2,7.5-0.2,9.8c2.3,1.9,4.8,0,6.4-1.8c0.6-0.6,0.6-1.6,0-2.1c-0.1-0.1-0.2-0.2-0.3-0.2l-0.1-0.1
	l0.5,2c19.2-29.4,23.5-66,11.6-99l-1.8,1.8c12.3,2.2,26.5,2.5,38.2-2.8c10-4.5,16-14.2,16.9-25c2.4-27.2-23.6-44.4-42.3-58.9
	c-11.4-8.9-22.9-18.5-32.4-29.4c-4.8-5.5-9-12-8.9-19.6c0.1-8.4,5.2-16,12.1-20.4c13.1-8.6,30.4-6.5,41.2,4.9
	c8.1,8.7,14.6,16,27.1,17.4c14.8,1.6,27.3-5.5,40.2-11.4c9.4-4.3,20-5.8,26.8,3.9c4.8,7,5.4,15.8,5.9,24c-0.1,0.8,0.5,1.6,1.3,1.7
	c0.8,0.1,1.6-0.5,1.7-1.3c4.4-13.9,0.7-31.8-13.6-38.3c-1.8-0.8-3.3,1.8-1.5,2.6c13.2,5.9,16.3,22.2,12.2,34.9l2.9,0.4
	c-0.7-11.5-2.1-25.7-13.2-32.1s-23.2,1.4-33.3,6.2c-14.2,6.7-32.5,10.9-45.5-0.7c-4.4-3.9-7.7-8.9-12.1-12.8
	c-4.5-4-10.1-6.5-16.1-7.3c-11.4-1.6-24.1,2.1-31.9,10.8c-7.7,8.4-9.1,20.8-3.4,30.8c6.7,12.1,19.1,21.8,29.5,30.6
	c11.3,9.5,24,17.5,34.4,27.9c11.7,11.8,20.9,29.2,13.4,45.8c-8.1,17.8-32.3,18.2-48.8,15.2c-1-0.2-2.3,0.7-1.8,1.8
	c11.6,32.2,7.4,68-11.3,96.7c-0.4,0.7-0.1,1.6,0.5,2l0.1,0.1l-0.3-2.4l-2.3-1c0.2-0.8,0.4-1.7,0.7-2.5c0.4-1.4,0.8-2.7,1.2-4.1
	c0.7-2.4,1.1-4.9,1.5-7.3c0.7-5.6,0.8-11.3,0.2-16.9c-0.6-5.5-5.3-14.3-10-6.7c-6.4,10.3-8,23-13.5,33.8
	c-5.3,10.3-12.8,19.4-21.9,26.5l2.6,1.1v-0.2c0-0.8-0.7-1.5-1.5-1.5c-0.4,0-0.7,0.2-1,0.4c-3.7,3.7-7.6,7.5-9.5,12.5
	c-1.8,4.6-1.2,9.5-1.2,14.3c0.1,7.4,0.1,19.1-10.5,17.2c-5.3-1-9.7-4.6-14.9-6.1l1.1,1.5l-0.4-30.1l-1.1,1.4
	c32.5-7,54.8-34.5,64.8-65c5.2-15.9,7.6-32.5,9.6-49.1c1-8.7,0.9-18.9,7.5-25.6c5.5-5.6,6.7-9.7,5.7-17.7c0-0.7-0.5-1.3-1.2-1.5
	c-32.8-12.6-68.3-16.7-103.1-12l1.7,2.2c4.3-5.7,4.7-16.5,4.3-23.4c-0.6-9-3.2-17.7-7.6-25.5c-0.4-0.6-1-0.9-1.7-0.7
	c-1.4,0.3-4.7-1.6-6.5-1.8c-2.6-0.3-5.2-0.3-7.8,0.1c-7.1,1.1-13.6,4.6-19.8,8c-7.3,4-14.7,7.9-22,11.9c-7.5,4.1-15.6,9.9-24.2,10.9
	l1.4,1.9c1.8-10.7,4.3-24.2,10.9-33.1c3.4-4.5,8.8-7,13.7-9.5c5.2-2.6,12.1-7.1,18-5.9c1.6,0.3,2.8-1.9,1.2-2.7
	c-4.3-2.3-9.1-3.7-13.4-6.2c-5.6-3.2-10.9-6.9-15.8-11c-9.4-7.6-18.5-16-25-26.3s-13.1-25.3-5.8-36.7c7.9-12.4,24.1-12.9,35.7-5.9
	c1.2,0.7,3-0.8,2-2c-3.7-5-8.7-8.8-14.6-10.9c-7.2-2.9-7.6-8.4-9.2-15.2c-2.4-10.4-11.8-16.1-21.5-9.5c-4.3,2.9-7.6,7.6-9.6,12.3
	c-2.2,5.2-3.2,12.8-9.3,14.5c-3.6,1-8.2,1.1-11.3,3.4c-4.2,3.2-5,9.9-6.5,14.5l2.9,0.8l1.6-5.2c0.6-1.9-2.3-2.6-2.9-0.8
	c-3.2,10.6-6.3,19.4-17.1,24.2s-22.2-0.1-33.2,3c-6,1.7-8,7.5-2.7,11.4s14.9,8,12,16.6c-2.1,6.2-9.3,8.2-14.9,9.8
	c-1.6,0.5-1.3,3.1,0.4,3l0.5,0l-0.4-2.9c-18.4,3.1-36.8,6.5-54.1,13.6c-5.6,2.3-12.5,4.5-14.5,10.9c-1.8,6,2.3,8.8,6.7,12
	c13.6,9.9,29.4,17,46.2,19.4c12.6,1.8,30.9,2.8,37.4-10.9c0.4-0.7,0.1-1.6-0.6-2c-0.7-0.4-1.6-0.1-2,0.5l-0.3,0.4l2.6,1.5
	c4.2-9.8,1.9-17-5.8-23.9c-3.5-3.1-7.8-5.9-12.5-6.6s-8.4,1.2-12.2,3.6l1.8,2.4c8.1-6.8,17.8-6.8,26.8-1.5
	c7.6,4.4,10.9,12.6,10.4,21.1h3v-1.8c0-0.8-0.7-1.5-1.5-1.5s-1.5,0.7-1.5,1.5l0,0c-0.1,12.7-8.2,21.9-19.6,26.4
	c-11.6,4.6-23.4,3.8-35.5,2c-15.5-2.2-31.6-5.9-45.6-13.4c-14.7-7.8-18.1-24.7-10.3-38.6c3-5.4,6.8-10.4,11.3-14.7
	c4.1-3.9,9.9-6.5,11.7-12.3c3.4-11-8.1-14.9-15.6-19.3c-10.2-6.1-24.2-16.8-15.9-29.8c3-4.8,7.7-8.4,12.2-11.7
	c3.7-2.8,9.4-5.7,11.3-10c0.8-1.7,1.8-4,1.3-5.9c-0.3-1.2-2.2-3-2.9-4.2c-1.4-2.2-2.5-4.5-3.3-7c-1.4-4-1.2-8.3,0.4-12.2
	c1.3-2.7,4.2-4.5,3-8c-1.7-4.8-10.3-7.5-14.4-9.8c-7.6-4.4-15.4-8.4-23.4-12c-0.7-0.4-1.6-0.1-2.1,0.6c-0.2,0.5-0.2,1,0,1.5
	c7.2,17.1-0.7,35.7-13.2,47.9c-10.5,10.2-23.9,17.1-36.9,23.7l1.5,2.6c14.6-8,27.7-25.1,28.6-42.2c1-19.6-18.7-31-36.5-28.5
	c-20.3,2.9-39.2,18.4-51.3,34.2c-13.2,17.3-17.4,37.7-8.7,58c8.3,19.6,27.2,39.5,21.8,62.4c-3,12.6-13.2,21-22.2,29.5
	c-7,6.6-17.9,16-18.8,26.3c-0.9,9.9,9.1,15.6,13.7,23.1c3.7,6,5.9,13.3,2.8,20c-2.8,6.2-8.9,11.4-13.9,15.8
	c-15,13-45.8,22.5-44.4,47c0.3,5.4,2.5,10.5,5.4,15c1.7,2.6,3.5,5,5.4,7.4c0.5,0.5,2.4,2.3,2.6,2.7c0.1,0.3,0.2,0.7,0.3,1
	c3.8,4.9,7.4,8.9,9.3,15c2.7,8.1,1.3,15.8,0,24c-2.1,13.4,1.3,26.2,6,38.7c4.8,12.9,11.5,25,19.7,36l2.4-1.8
	c-8.1-6.7-13.7-16-22.1-22.5c-4-3.1-8.7-5.2-13.6-6.2c-6.9-1.5-14-2-19-7.8c-1.1-1.3-3.2,0.4-2.3,1.8l0.2,0.3l2.6-1.7
	c-3.5-5.5-8.3-9.9-13.9-13c-6.6-3.5-13.6-3.8-20.9-4.5c-10.2-1-17.2-6-25.4-11.6L260.6,577c-0.7-0.4-1.6-0.2-2.1,0.6
	c-0.1,0.2-0.2,0.5-0.2,0.7c-0.1,13.4,4.7,25.8,9.8,38c5.3,12.6,10.6,25.3,16.6,37.6c10.5,21.8,23.4,43.9,47.1,53l0.4-3l0,0
	c-0.8,0-1.5,0.7-1.5,1.5c0,0.1,0,0.3,0.1,0.4c8.3,32.1,5.4,65.6-4.2,97.1c-9.1,30.1-22.1,58.8-38.9,85.3l2.7,1.2
	c2-6.5,4.2-13,6.1-19.5s4.1-17-1.3-22.5c-2.7-2.7-6.7-3.1-10.3-3c-8.2,0.4-16.1,3-23.9,5.3c-17,5.1-34.5,11.8-52.4,13.3
	c-14.7,1.3-31.2-2.1-41.1-14c-11.3-13.7-7.2-32.7-1.4-47.8s14.5-29.3,15.7-45.7c1-13.5-4.2-26.3-13.2-36.2
	c-10.6-11.6-28.2-15.9-34.2-31.4c-3-7.8-3.2-16.3-1.7-24.5s5.2-15.1,7.6-22.8c1.3-4.1,3-7.9,2.1-12.4c-1.2-5.3-4.5-9.9-9.2-12.7
	c-5.8-3.8-12.9-5.2-19.5-6.9c-8-2.1-15.9-4.6-23.7-7.5c-14.2-5.7-27.1-14.2-35.1-27.5c-7.2-12-9.4-26.9-2.4-39.6
	c11.9-21.7,48.2-31.7,44.4-61.3c-1.8-14.1-14.2-19.6-25.8-24.7c-15.2-6.7-30.1-15.2-42.2-26.6C4.3,398.4-1.1,365.4,6.2,333.7
	c1.7-7.5,4.1-14.8,6.9-21.9l-3-0.4c2.9,42.8,8.9,95.8,53.7,115.5c19.2,8.5,40.8,4.8,57.3-7.9c14-10.7,24.9-29.4,17.4-47.1
	c-4.7-11-15.2-18.4-25.6-23.6c-11.9-6-27.4-8.4-35-20.4l-1.7,2.2c18,2.5,37,3.8,54.6-1.4c8.2-2.4,16.2-6.2,23.6-10.2
	c5.4-2.9,14.2-7.1,16-13.6c1.7-6.1-2.5-12.2-6.8-16.1c-6.8-6.2-15.7-9.7-22.4-16.2c-13.5-13.1-23-34-20.9-52.9
	c2.5-23.6,14-47.1,27.7-66.2l-2,0.5l0.6,0.3c0.7,0.4,1.6,0.2,2.1-0.5c3.3-7.4,8.5-13.7,15.1-18.4l-2.3-1.3
	c-0.6,6.4-2.6,12.5-3.6,18.8c-0.9,5.8-1,11.7-0.3,17.6c1.1,9.5,4.9,18.5,11,25.8c14.5,17,36.8,17.6,55.7,8c4.8-2.5,9.4-5.3,13.8-8.4
	c3.1-2.1,7.3-4.5,8.3-8.5c1.1-4.2-1.8-7.8-3.9-11.2c-1.8-2.8-3.5-6-3.7-9.4c-0.2-5.8,3.2-8,8-9.8c3.6-1.3,6.9-3.3,9.9-5.8
	c4.9-4.2,9.3-9.2,16.2-9.8c14.2-1.1,24,11.3,30.5,22c3.7,6.2,11.7,13.4,18.9,7.4c6.9-5.7,5.6-16.5,3.9-24.2c-1.3-6-3.3-12-3.4-18.2
	c-0.1-6.7,2-13.2,5-19.2c4.9-9.5,11.4-18.2,19.1-25.5c18.1-17.3,41.8-22.4,66.1-19.8c22.7,2.4,45.2,7.3,66.1-4.8
	c17.9-10.3,31.9-27.8,53.1-31.6c22.5-4.1,44.9,5.1,67.5,3.3c9.7-0.9,19-4,27.2-9.1c8.6-5.1,16.5-11.4,25.6-15.6
	c10.5-4.7,21.8-4.8,31.9,1.1c9.2,5.4,16,14.3,21.2,23.5c5.4,9.7,8.9,20.2,13.4,30.3c2,4.6,4.3,9.1,6.9,13.4
	c2.3,3.8,5.5,9.5,9.2,12.1c3,2,8.4,1.8,11.8,1.6c6.3-0.4,12.4-2.2,18.7-3c13.7-1.7,27.3,1.3,40.7,3.8c12.6,2.3,25.2,4.3,37.7,7
	c12,2.3,22.6,9.2,29.8,19.1c12.7,17.2,16.8,38.9,28.2,56.8c2.4,3.8,5.3,7.3,8.6,10.5c0.3,0.3,0.2,1,0.6,1.4c1.8,1.5,4.7,2.4,6.9,3.2
	c10.6,4,21.9,4.7,32.9,6.5c11.9,2,24.1,5.4,32.4,14.8c8,9.1,11.4,21.6,11.3,33.6c-0.1,13.6-5.1,25.4-12.5,36.5
	c-4.5,6.7-12.6,17.7-9.6,26.5c2.4,7.3,11.1,13.9,17.8,16.8c9.2,4.1,18.7,3.3,28.2,0.8c10.9-2.9,22.1-7.8,33.3-3.6
	C1053.7,319.5,1054.5,316.6,1052.7,316z"/>
<path d="M750.7,465.3c8.8-7.9,18.6-14.6,29.2-20c10.9-5.8,22.5-10,34.6-12.5c5.3-1,10.6-1.5,16-2.3c1.9-0.3,1.1-3.2-0.8-2.9
	c-4.9,0.7-9.8,1.1-14.7,2c-5.3,1-10.5,2.4-15.6,4.1c-12.9,4.4-25.1,10.5-36.4,18.2c-5,3.4-9.8,7.2-14.4,11.2
	C747.2,464.5,749.3,466.6,750.7,465.3L750.7,465.3z"/>
<path d="M828.3,437.5c-16.6,2.1-33.3,7-47,16.9s-24.7,23.9-30,40.2c-1.7,5.6-2.8,11.4-3.2,17.2c-0.4,4.5-0.6,9.1-0.5,13.6
	c0.1,1.9,3.1,1.9,3,0c-0.4-8.8,0.5-17.6,2.5-26.2c2.3-9.1,6.5-17.6,12.2-25.1c7.3-9.7,16.7-17.7,27.5-23.3
	c11-5.6,23.2-8.8,35.4-10.3C830.2,440.3,830.2,437.3,828.3,437.5L828.3,437.5z"/>
<path d="M845.7,586.2c-14.5,5.2-31,6.5-45.5,0.9c-4.3-1.7-8.3-3.9-12-6.6c-1.1-0.8-2.5,0.5-2.2,1.7l2,7.6c0.3,1.1,0.5,2.2,0.9,3.2
	c0.4,0.8,1,1.4,1.7,1.8c1.2,0.9,2.5,1.8,3.8,2.5c9.4,5.2,20.6,5.3,31.1,4.6c7-0.4,13.9-1.5,20.7-3.2c0.8-0.2,1.2-1.1,1-1.9
	c-0.2-0.8-1-1.2-1.8-1c-10.5,2.7-21.4,3.8-32.3,3.3c-5.2-0.1-10.2-1.3-15-3.3c-1.3-0.6-2.5-1.3-3.7-2c-0.6-0.4-1.2-0.8-1.7-1.2
	c-0.2-0.2-1.4-1.2-1-0.4c-0.3-0.9-0.6-1.8-0.7-2.7l-2.2-8.2l-2.2,1.7c6.8,4.9,14.6,8.2,22.8,9.7c7.7,1.3,15.6,1.2,23.3-0.2
	c4.7-0.7,9.3-1.9,13.8-3.5c1.8-0.7,1-3.5-0.8-2.9L845.7,586.2z"/>
<path d="M812,472.7c-6-1.4-11.9,0.2-17.8,1.3c-2.5,0.5-5,1-7.4,1.5c-4.5,1-9.2,1.1-13.8,0.3c-2.6-0.5-5.1-1-7.7-1.5
	c-1.9-0.4-2.7,2.5-0.8,2.9c4.6,0.9,9.3,2.2,14.1,2.1c2.5,0,5-0.2,7.4-0.6c2.6-0.5,5.2-1.1,7.9-1.6c5.6-1.1,11.7-2.9,17.4-1.5
	C813.1,476.1,813.9,473.2,812,472.7L812,472.7z"/>
<path d="M818.9,447.3c-4.8,4-12.2,2.6-17.8,1.8c-2.6-0.3-5.3-0.8-8-1.2c-1.9-0.3-2.7,2.6-0.8,2.9c3.2,0.5,6.4,1.1,9.6,1.4
	c6.5,0.8,13.8,1.7,19.2-2.8C822.5,448.2,820.4,446.1,818.9,447.3L818.9,447.3z"/>
<path d="M805.4,474.6c3.2-2.7,4.9-6.8,5.8-10.7c1.1-4.1,1-8.4-0.2-12.5c-0.6-1.8-3.5-1-2.9,0.8c1,3.5,1.1,7.3,0.2,10.9
	c-0.8,3.5-2.3,7-5.1,9.4C801.8,473.7,803.9,475.8,805.4,474.6z"/>
<path d="M770,468.1c1.5,3.4,4.4,5.4,7.7,6.9c1.2,0.5,2.5,0.9,3.8,1.1c4.9,0.8,10,0.1,14.5-2.2l-1.5,1c3.5-2.2,6.1-5.5,7.5-9.4
	c1.3-3.8,0.4-10.4-1-14.2l-8.4-2C783.8,453.9,776,460.3,770,468.1L770,468.1z"/>
<path d="M768.7,468.8c2,4.5,6.8,7.5,11.6,8.5c5.6,1.2,11.4,0.4,16.5-2.2l-1.5-2.6l-1.6,1l1.5,2.6c4.2-2.7,7.9-7.2,8.6-12.3
	c0.3-2.6,0.3-5.2-0.2-7.8c-0.2-1.1-0.4-2.2-0.7-3.3c-0.3-1.1-0.5-2.5-1.6-2.9c-1-0.3-2-0.5-3-0.7l-4.4-1c-0.3-0.1-0.6-0.2-1-0.2
	c-1.1-0.2-2.2,0.7-3.1,1.2c-2.5,1.4-4.9,2.9-7.2,4.6c-5.2,3.8-9.8,8.3-13.8,13.3c-1.2,1.5,0.9,3.6,2.1,2.1c6-7.7,13.6-14,22.3-18.5
	l-1.2,0.2l8.4,2l-1-1c1.4,3.8,1.9,7.8,1.4,11.8c-0.7,4.1-3.7,7.8-7.2,10c-1.6,1-0.1,3.6,1.5,2.6l1.5-1c0.7-0.4,0.9-1.4,0.5-2.1
	c-0.4-0.7-1.3-0.9-2-0.5c-4.4,2.2-9.4,2.8-14.2,1.8c-4.1-0.9-8-3.2-9.8-7.1C770.5,465.6,767.9,467.1,768.7,468.8z"/>
<path class="st0" d="M800.6,447.4"/>
<path d="M331.4,706.9c4.2,2.4,9.8,2.2,14.4,1.9c5-0.2,10-1.1,14.7-2.7c1.8-0.7,1-3.6-0.8-2.9c-4.4,1.5-9,2.4-13.6,2.6
	c-2.5,0.2-5.1,0.2-7.6,0c-2-0.1-3.9-0.6-5.6-1.5c-0.7-0.4-1.7-0.1-2,0.7C330.6,705.7,330.8,706.5,331.4,706.9L331.4,706.9z"/>
</svg>
